<svg xmlns="http://www.w3.org/2000/svg" width="5573.111" height="1990.154"><path fill="#F64060" d="M3283.748 1072.614c-7.664 11.584-12.557 19.528-17.893 27.18-49.844 71.39-105.776 136.571-182.021 181.676-102.199 60.419-212.97 85.341-328.428 60.315-59.242-12.853-114.359-46.009-170.154-72.463-12.86-6.069-19.889-6.223-31.32.524-47.857 28.227-94.404 59.867-145.076 81.812-89.938 38.936-184.639 60.752-282.521 34.857-61.352-16.232-114.425-50.798-162.374-92.377-34.004-29.479-36.188-29.453-70.677-1.086-62.014 51.031-133.607 83.935-208.522 111.116-92.929 33.748-188.767 54.427-286.788 64.135-119.596 11.841-230.494-8.47-311.427-106.782-64.874-78.774-82.223-170.154-42.536-265.149 43.469-104.014 93.732-205.229 140.932-307.659 24.611-53.367 49.382-106.683 73.253-160.368 4.366-9.862 6.131-21.368 6.629-32.254.934-20.015 5.007-41.936-18.136-53.979-23.645-12.263-51.543-10.052-68.875 11.879-21.728 27.438-40.951 57.492-57.123 88.557-53.572 102.827-105.403 206.599-157.659 310.1-39.201 77.61-77.65 155.565-117.208 232.974-37.479 73.422-107.924 101.396-184.27 72.845-25.715-9.655-41.845-28.624-46.178-57.479-6.13-40.938 7.294-77.599 21.817-114.246 31.716-80.164 63.843-160.177 95.546-240.367 16.977-42.995 33.965-86.026 49.904-129.417 11.166-30.339 14.521-62.515 1.496-92.316-10.08-22.977-29.918-39.582-57.748-37.116-30.392 2.695-54.302 18.572-65.759 46.79-40.312 99.527-78.979 199.708-118.641 299.492-47.438 119.435-94.088 239.194-143.505 357.821-18.292 43.838-45.883 83.755-92.305 102.518-23.5 9.528-50.106 15.42-75.411 15.775-78.952 1.034-147.138-25.342-193.707-92.351-37.03-53.29-46.087-112.598-28.19-175.339 16.551-58.082 33.105-116.161 50.467-174.014 16.451-54.822 33.939-109.351 51.016-164.008 15.916-50.889 30.796-102.163 48.054-152.591 33.964-99.273 61.352-201.523 115.176-292.585 36.825-62.308 96.479-95.994 164.893-116.891 71.528-21.816 132.46 5.648 193.528 36.035 23.158 11.493 46.01 23.784 69.779 33.797 33.161 13.923 63.396 5.109 90.181-16.707 21.921-17.845 44.042-35.676 64.248-55.409 50.48-49.281 159.529-58.413 212.819-1.062 12.274 13.207 26.758 24.348 40.312 36.316 27.896 24.64 39.431 27.154 71.707 8.94 76.756-43.339 156.27-37.338 234.432-9.556 45.345 16.134 72.488 54.657 89.82 100.283 25.494 67.175 14.806 132.039-10.741 195.179-46.994 116.158-98.179 230.597-144.034 347.19-27.18 69.167-50.134 140.288-69.666 211.974-7.955 29.214-8.007 63.854-.586 93.206 11.228 44.429 51.922 58.986 93.08 64.2 62.677 7.945 124.181-3.704 184.229-20.311 51.284-14.127 101.777-31.563 151.862-49.663 24.166-8.736 46.687-22.147 69.754-33.861 19.733-9.978 21.257-24.587 10.858-42.957-21.243-37.489-43.585-74.507-62.298-113.286-39.57-81.967-72.13-166.551-63.444-260.025 7.588-81.814 37.133-152.871 112.622-195.932 111.446-63.521 201.883-45.982 283.798 48.922 70.842 82.097 94.204 180.921 63.791 286.801-17.015 59.203-41.359 116.428-64.582 173.681-6.426 15.852-2.696 26.006 7.333 35.342 46.916 43.824 100.41 77.867 159.794 101.955 22.391 9.122 46.062 15.916 69.793 20.683 51.041 10.229 98.393-1.918 140.914-30.76 20.248-13.72 20.691-26.541 6.643-45.688-97.806-133.395-136.521-281.87-107.131-445.024 11.012-61.083 39.267-118.779 104.833-136.368 40.529-10.884 86.334-10.424 128.476-5.058 68.488 8.71 130.514 36.045 172.59 95.009 50.48 70.751 63.37 148.182 41.645 232.766-15.599 60.752-47.467 112.433-82.557 162.631-13.896 19.901-14.432 38.244 4.512 51.553 29.173 20.502 58.82 42.981 91.787 54.852 71.634 25.776 145.963 23.528 218.131.331 78.966-25.434 134.451-77.814 166.094-155.54 37.794-92.951 38.255-190.312 36.34-288.025-1.521-76.349-4.189-152.691-6.452-229.065-.804-27.271-5.196-28.854-31.194-23.565-68.488 13.836-137.322 26.084-206.056 38.652-21.678 3.935-43.547 6.604-65.211 10.512-47.221 8.496-86.18-10.906-88.849-66.141-2.722-55.665-10.78-111.064-16.503-166.604-.334-3.126-.59-6.27-.755-9.426-3.195-65.359 12.621-100.909 91.088-98.061 81.033 2.978 162.066 5.647 242.999 9.899 39.812 2.07 53.813-7.958 56.433-47.464 2.02-30.67 2.875-61.364 4.789-92.021 2.875-45.982 13.359-56.905 60.071-55.078 27.925 1.099 55.986 5.966 83.298 12.109 38.459 8.648 58.616 35.728 61.284 73.982 2.16 31.346 1.254 62.936.757 94.383-.41 22.251 6.5 34.194 31.445 36.712 72.005 7.33 143.727 17.346 215.579 25.877 33.927 4.038 52.966 17.771 57.554 42.996 7.959 43.812-1.51 73.816-34.578 85.786-46.254 16.732-94.074 29.48-141.896 41.269-33.466 8.266-68.134 11.804-102.148 18.052-22.825 4.177-35.229 16.169-35.024 41.845.854 126.786-2.019 253.688 1.662 380.353 1.914 66.471 11.892 133.033 40.209 195.123 22.875 50.289 61.938 70.101 116.265 60.991 79.717-13.373 152.792-41.371 216.444-91.812 35.319-27.986 58.552-62.233 60.313-109.531 3.183-86.552 7.459-173.077 12.541-259.502 1.471-24.934 4.297-50.788 12.609-74.047 4.635-12.903 21.562-29.966 33.351-30.312 65.116-1.968 130.676-2.618 195.485 3.003 40.771 3.524 68.778 41.667 66.621 84.828-2.922 60.428-10.737 120.642-16.487 180.946-7.103 74.403-13.651 148.858-21.56 223.161-8.01 75.211 52.148 112.507 111.672 113.235 49.935.6 79.414-18.035 100.631-70.878 21.97-54.696 35.027-113.99 44.502-172.469 13.402-83.024 19.746-167.188 29.635-250.791 4.025-34.144 25.34-60.393 51.847-66.089 30.646-6.578 70.853 5.853 80.884 33.864 8.417 23.411 6.5 52.013 3.57 77.686-10.828 95.214-26.446 189.952-35.365 285.355-5.494 58.604 27.361 100.323 84.299 117.643 28.373 8.609 57.801 15.417 87.185 18.815 51.604 5.901 88.147-31.769 98.927-90.423 9.124-49.317 10.336-100.094 14.77-150.252 5.186-59.563 5.938-119.892 16.117-178.596 14.971-86.91 71.11-165.747 175.125-191.041 62.434-15.199 125.379-17.012 187.715-9.809 95.045 10.933 194.463 75.541 224.852 184.716 23.077 83 13.906 163.178-13.246 243.024-31.451 92.529-88.941 164.636-169.223 219.549-7.412 5.059-11.742 14.663-17.438 22.174 10.077 4.458 20.258 12.925 30.29 12.747 95.952-1.468 186.444-23.414 269.3-73.675 18.695-11.318 39.059-19.89 58.805-29.279 18.142-8.596 28.832 1.585 23.785 17.232-8.42 26.224-18.549 53.893-35.319 75.079-71.008 89.761-167.865 132.794-279.89 140.331-47.518 3.191-95.746-3.156-143.623-5.801-36.137-2.02-72.207-5.161-108.342-7.611-18.34-1.201-28.93 6.5-33.519 25.456-28.767 118.729-43.99 239.46-58.908 360.516-9.416 76.218-23.635 152.18-41.871 226.765-9.876 40.465-41.476 68.363-85.226 75.414-26.149 4.213-45.5-7.104-54.275-31.476-7.395-20.551-14.303-42.124-16.064-63.659-8.627-106.288-5.101-212.319 9.015-318.096 7.155-53.814 11.942-107.935 18.088-161.865 4.342-37.514 9.992-74.902 13.519-112.493 2.768-30.361-4.142-37.528-33.213-43.312-60.127-11.995-120.285-23.786-180.153-37.043-40.672-9.044-72.376 5.362-99.942 33.389-36.629 37.26-77.1 69.641-125.127 90.576-58.002 25.303-119.481 19.988-179.143 10.536-86.069-13.705-154.814-58.959-203.686-131.577-15.179-22.53-26.162-47.95-38.055-72.516-6.654-13.755-12.644-19.106-28.773-10.881-57.203 29.124-114.193 59.025-173.244 83.972-65.771 27.797-135.566 37.565-205.46 18.075-68.134-19.034-120.39-62.896-163.78-117.72-11.647-14.692-23.09-29.484-41.129-52.59zm1962.418-272.66c-.752-9.426-.752-18.917-2.314-28.19-8.722-53.701-62.641-77.737-106.08-45.356-19.643 14.636-37.49 33.859-50.893 54.427-44.754 68.604-64.961 147.199-85.168 225.358-5.086 19.633-8.625 40.391-8.217 60.545.759 37.542 22.832 48.578 54.275 28.294 65.26-42.102 113.598-100.5 154.405-165.416 24.797-39.434 45.105-81.035 43.992-129.662zm-2560.77 37.872c.573-37.312-8.137-71.837-35.615-98.673-15.234-14.87-34.281-21.345-56.124-14.536-26.492 8.211-40.812 27.87-42.804 60.493-3.855 63.2 23.287 117.502 51.223 170.957 14.384 27.528 28.051 26.657 46.634 1.216 25.994-35.575 36.136-76.015 36.686-119.457zm-644.289-12.071c-6.908-22.854-11.479-46.789-21.345-68.312-12.595-27.388-45.062-39.713-73.776-32.202-30.389 7.972-42.406 22.456-39.253 59.894 2.772 32.585 10.259 65.081 18.93 96.732 6.36 23.262 16.159 46.061 27.743 67.252 15.586 28.547 31.871 28.829 47.198 1.188 21.126-38.052 37.452-78.017 40.503-124.552z"/></svg>