<svg width="55" height="55" viewBox="0 0 55 55" fill="none" xmlns="http://www.w3.org/2000/svg">
<rect width="55" height="55" fill="#FB503B"/>
<path d="M46.8503 26.145C46.5946 25.8629 43.1205 21.508 42.5032 20.7675C41.886 20.027 41.595 20.1593 41.2159 20.221C40.8367 20.2827 36.4367 21.0144 35.9253 21.1025C35.4139 21.1907 35.0964 21.3934 35.405 21.8342C35.6872 22.2221 38.5794 26.3301 39.2143 27.2293L27.7072 29.9885L18.5722 14.6936C18.2106 14.1559 18.1313 13.962 17.3024 14.006C16.4736 14.0413 10.1248 14.5702 9.67515 14.6055C9.22545 14.6408 8.72284 14.8435 9.18136 15.9102C9.63106 16.9769 16.8439 32.5098 17.0467 32.9593C17.2495 33.4089 17.7697 34.1406 18.9954 33.8497C20.2475 33.55 24.5946 32.4128 26.9665 31.7957C28.2187 34.0701 30.7846 38.6718 31.2519 39.3329C31.8868 40.2145 32.3189 40.0646 33.2888 39.7737C34.0471 39.5445 45.1397 35.5599 45.6423 35.3483C46.1449 35.1456 46.4535 34.9957 46.1097 34.4932C45.8628 34.123 42.9353 30.2089 41.401 28.1549C42.4503 27.8728 46.1802 26.8855 46.5858 26.7709C47.0443 26.6563 47.106 26.4271 46.8503 26.145ZM25.9349 30.4205C25.7938 30.4469 19.3569 31.9896 19.013 32.069C18.6691 32.1483 18.6691 32.1042 18.6339 31.9896C18.5986 31.875 10.9713 16.157 10.8655 15.9631C10.7597 15.7691 10.7685 15.6105 10.8655 15.6105C10.9625 15.6105 16.9497 15.0727 17.1613 15.0639C17.373 15.0551 17.3465 15.0992 17.4259 15.2314C17.4259 15.2314 25.8643 29.7946 26.0142 30.0502C26.1641 30.3147 26.076 30.394 25.9349 30.4205ZM44.1081 33.8233C44.2139 33.9819 44.3109 34.0877 43.9934 34.2023C43.6672 34.3169 33.086 37.8872 32.8832 37.9754C32.6804 38.0635 32.5128 38.09 32.2483 37.7109C31.9838 37.3318 28.5449 31.3726 28.5449 31.3726L39.761 28.4546C40.0431 28.3665 40.1313 28.3048 40.3076 28.5869C40.484 28.869 44.0022 33.6646 44.1081 33.8233ZM44.8223 25.8629C44.5666 25.9158 40.4487 26.9384 40.4487 26.9384L37.0804 22.319C36.9834 22.1868 36.904 22.0546 37.1421 22.0193C37.3802 21.9841 41.207 21.2965 41.3746 21.2612C41.5509 21.2259 41.7008 21.173 41.9125 21.4639C42.1241 21.7549 45.0339 25.4397 45.1485 25.5808C45.2632 25.7218 45.078 25.81 44.8223 25.8629Z" fill="#3A3A3A"/>
</svg>
