<svg width="55" height="55" viewBox="0 0 55 55" fill="none" xmlns="http://www.w3.org/2000/svg">
<rect width="55" height="55" fill="white"/>
<path fill-rule="evenodd" clip-rule="evenodd" d="M27 39.8655C21.6667 39.8655 18.3333 37.2138 17 31.9103C19 34.562 21.3333 35.5564 24 34.8935C25.5215 34.5152 26.6089 33.4176 27.8127 32.2026C29.7736 30.2234 32.043 27.9327 37 27.9327C42.3333 27.9327 45.6667 30.5844 47 35.8879C45 33.2362 42.6667 32.2418 40 32.9047C38.4785 33.2829 37.391 34.3806 36.1873 35.5956C34.2264 37.5748 31.957 39.8655 27 39.8655ZM17 27.9328C11.6667 27.9328 8.33333 25.2811 7 19.9776C9 22.6293 11.3333 23.6237 14 22.9608C15.5215 22.5826 16.609 21.4849 17.8127 20.2699C19.7736 18.2907 22.043 16 27 16C32.3333 16 35.6667 18.6517 37 23.9552C35 21.3035 32.6667 20.3091 30 20.972C28.4785 21.3503 27.3911 22.4479 26.1873 23.6629C24.2264 25.6421 21.957 27.9328 17 27.9328Z" fill="url(#paint0_linear)"/>
<defs>
<linearGradient id="paint0_linear" x1="-0.2" y1="35.5697" x2="5.33502" y2="9.80013" gradientUnits="userSpaceOnUse">
<stop stop-color="#2383AE"/>
<stop offset="1" stop-color="#6DD7B9"/>
</linearGradient>
</defs>
</svg>
